<svg width="122.88" height="84.86" xmlns="http://www.w3.org/2000/svg" data-name="Layer 1">
 <title>medium</title>

 <g>
  <title>Layer 1</title>
  <path id="svg_1" d="m11.32,19.85l22.57,0l18.67,-18.85a3.55,3.55 0 0 1 5,0a3.48,3.48 0 0 1 1,2.51l0,0l0,77.79a3.56,3.56 0 0 1 -6.1,2.49l-18.45,-15l-22.69,0a11.35,11.35 0 0 1 -11.32,-11.3l0,-26.32a11.37,11.37 0 0 1 11.32,-11.32zm63.39,11.77a3.32,3.32 0 0 1 6.29,-2.11c1.14,3.39 1.69,8.66 1.6,13.67s-0.81,9.72 -2.19,12.57a3.33,3.33 0 0 1 -6,-2.91c1,-2 1.47,-5.76 1.55,-9.77a38.19,38.19 0 0 0 -1.27,-11.45l0.02,0zm17.14,-12.4a3.32,3.32 0 0 1 6.15,-2.55c3.08,7.4 4.75,16.71 4.89,26s-1.21,18.25 -4.14,25.51a3.31,3.31 0 0 1 -6.15,-2.47c2.6,-6.44 3.79,-14.67 3.67,-23s-1.63,-16.86 -4.41,-23.5l-0.01,0.01z"/>
 </g>
</svg>