<svg width="122.88" height="84.86" xmlns="http://www.w3.org/2000/svg" data-name="Layer 1">
 <title>low</title>

 <g>
  <title>Layer 1</title>
  <path d="m11.54222,20.07222l22.57,0l18.67,-18.85a3.55,3.55 0 0 1 5,0a3.48,3.48 0 0 1 1,2.51l0,0l0,77.79a3.56,3.56 0 0 1 -6.1,2.49l-18.45,-15l-22.69,0a11.35,11.35 0 0 1 -11.32,-11.3l0,-26.32a11.37,11.37 0 0 1 11.32,-11.32z" id="svg_1"/>
  <path stroke="null" id="svg_2" d="m28.00556,22.08202zm68.48339,7.37821a4.99786,4.99786 0 0 1 7.13196,0a5.12555,5.12555 0 0 1 0,7.19582l-8.5912,8.71888l8.61857,8.74625a5.07994,5.07994 0 0 1 -0.05472,7.15933a5.00698,5.00698 0 0 1 -7.10461,0l-8.60034,-8.70065l-8.57296,8.70976a5.0161,5.0161 0 0 1 -7.13196,0a5.13466,5.13466 0 0 1 0,-7.20494l8.61855,-8.70976l-8.61855,-8.75537a5.07082,5.07082 0 0 1 0.0547,-7.15019a4.98873,4.98873 0 0 1 7.10463,0l8.57296,8.68239l8.57296,-8.70065l0,0.00912z"/>
 </g>
</svg>